<svg width="220" height="220" viewBox="0 0 220 220" fill="none" xmlns="http://www.w3.org/2000/svg">
  <rect width="220" height="220" rx="8" fill="#fff7ed"/>
  <circle cx="110" cy="93" r="45" fill="#e0ac69"/>
  <path d="M65 79c11-27 30-42 61-33 24 7 35 25 33 51-22-10-45-18-94-18Z" fill="#78350f"/>
  <path d="M48 196c10-38 34-58 62-58s52 20 62 58H48Z" fill="#ea580c"/>
  <path d="M86 151h48l-24 36-24-36Z" fill="#f8fafc"/>
  <circle cx="94" cy="96" r="4" fill="#111827"/>
  <circle cx="126" cy="96" r="4" fill="#111827"/>
  <path d="M95 119c8 6 22 6 30 0" stroke="#111827" stroke-width="4" stroke-linecap="round"/>
</svg>
