<svg width="220" height="220" viewBox="0 0 220 220" fill="none" xmlns="http://www.w3.org/2000/svg">
  <rect width="220" height="220" rx="8" fill="#f5f3ff"/>
  <circle cx="110" cy="92" r="45" fill="#e0ac69"/>
  <path d="M60 89c5-35 30-54 63-45 29 8 39 31 35 59-27-16-60-19-98-14Z" fill="#312e81"/>
  <path d="M48 196c10-38 34-58 62-58s52 20 62 58H48Z" fill="#4f46e5"/>
  <path d="M86 151h48l-24 36-24-36Z" fill="#f8fafc"/>
  <circle cx="94" cy="94" r="4" fill="#111827"/>
  <circle cx="126" cy="94" r="4" fill="#111827"/>
  <path d="M96 119c8 6 20 6 28 0" stroke="#111827" stroke-width="4" stroke-linecap="round"/>
</svg>
