<svg width="220" height="220" viewBox="0 0 220 220" fill="none" xmlns="http://www.w3.org/2000/svg">
  <rect width="220" height="220" rx="8" fill="#f8fafc"/>
  <circle cx="110" cy="93" r="45" fill="#c68642"/>
  <path d="M61 94c2-34 23-58 56-54 30 3 45 23 44 57-27-13-66-15-100-3Z" fill="#1e293b"/>
  <path d="M48 196c10-38 34-58 62-58s52 20 62 58H48Z" fill="#475569"/>
  <path d="M85 151h50l-25 34-25-34Z" fill="#f8fafc"/>
  <circle cx="94" cy="96" r="4" fill="#111827"/>
  <circle cx="126" cy="96" r="4" fill="#111827"/>
  <path d="M97 120c6 5 20 5 26 0" stroke="#111827" stroke-width="4" stroke-linecap="round"/>
</svg>
