<svg width="220" height="220" viewBox="0 0 220 220" fill="none" xmlns="http://www.w3.org/2000/svg">
  <rect width="220" height="220" rx="8" fill="#ecfdf5"/>
  <circle cx="110" cy="92" r="45" fill="#f1c27d"/>
  <path d="M62 88c8-38 33-54 63-43 24 2 39 23 37 53-22-9-50-17-100-10Z" fill="#111827"/>
  <path d="M48 196c10-38 34-58 62-58s52 20 62 58H48Z" fill="#047857"/>
  <path d="M86 151h48l-24 38-24-38Z" fill="#f8fafc"/>
  <circle cx="94" cy="94" r="4" fill="#111827"/>
  <circle cx="126" cy="94" r="4" fill="#111827"/>
  <path d="M95 118c8 7 22 7 30 0" stroke="#111827" stroke-width="4" stroke-linecap="round"/>
</svg>
